#!OML:ASF H:\ManfredObstacles\Project 1\Capture day 2\Session 1\male.ASF
:FULLY-SPECIFIED
:DEGREES
192
root 1.98387 16.224 -16.6351 -171.989 9.57708 174.843
lowerback 1.54807 -5.57939 -10.9124
upperback 2.83776 -7.31656 0.156994
thorax 3.52012 -3.89283 6.02555
lowerneck -26.9347 5.94709 8.93337
upperneck 40.6657 10.8983 -5.2972
head 22.8052 5.57693 -1.16688
rclavicle -1.36167e-014 3.97569e-016
rhumerus -70.0758 -4.62656 -77.2165
rradius 88.4486
rwrist 5.84202
rhand -8.7222 -0.114401
rfingers 7.12502
rthumb 17.2138 -29.372
lclavicle -1.36167e-014 3.97569e-016
lhumerus -35.4994 -36.795 88.3158
lradius 93.0698
lwrist -19.7403
lhand -9.5254 3.22245
lfingers 7.12502
lthumb 16.4406 32.5458
rfemur -48.3295 2.26238 13.7758
rtibia 46.0024
rfoot 0.839465 -5.84862
rtoes -22.8836
lfemur 3.62718 -2.05436 -30.0892
ltibia 28.7321
lfoot 20.0346 12.4951
ltoes -3.18673
193
root 2.0294 16.2648 -16.9263 -171.881 9.35914 174.622
lowerback 1.03099 -5.58859 -10.9035
upperback 2.64167 -7.28823 0.118027
thorax 3.59022 -3.87712 5.93963
lowerneck -26.8245 5.77618 8.82333
upperneck 40.8519 10.7873 -5.28316
head 22.8906 5.54937 -1.16767
rclavicle 5.70512e-014 4.37326e-015
rhumerus -69.9334 -4.30635 -77.6186
rradius 88.7582
rwrist 5.84
rhand -8.60918 0.0302794
rfingers 7.12502
rthumb 17.3226 -29.2177
lclavicle 5.70512e-014 4.37326e-015
lhumerus -37.1039 -37.2382 89.5921
lradius 93.0851
lwrist -19.9613
lhand -9.47755 2.77417
lfingers 7.12502
lthumb 16.4867 32.0937
rfemur -47.4609 1.65312 14.1069
rtibia 44.6739
rfoot 1.33243 -6.99614
rtoes -22.6987
lfemur 4.50043 -1.55537 -29.9888
ltibia 28.179
lfoot 21.2104 11.1445
ltoes -2.36685
194
root 2.07659 16.2957 -17.2158 -171.743 9.06821 174.369
lowerback 0.510699 -5.60114 -10.9208
upperback 2.41928 -7.26352 0.0692447
thorax 3.63754 -3.86096 5.85921
lowerneck -26.7483 5.57771 8.69178
upperneck 41.0658 10.6467 -5.26192
head 23.0054 5.5102 -1.16714
rclavicle -4.64162e-014 4.77083e-015
rhumerus -69.768 -3.98637 -78.0131
rradius 89.0345
rwrist 5.84741
rhand -8.50364 0.129494
rfingers 7.12502
rthumb 17.4242 -29.1096
lclavicle -4.64162e-014 4.77083e-015
lhumerus -38.7217 -37.6111 90.8757
lradius 93.0302
lwrist -20.1882
lhand -9.4505 2.33086
lfingers 7.12502
lthumb 16.5127 31.6482
rfemur -46.6289 1.21916 14.2665
rtibia 43.6965
rfoot 1.88156 -8.77748
rtoes -22.3156
lfemur 5.15528 -1.14751 -29.8578
ltibia 27.9772
lfoot 22.3087 9.89667
ltoes -1.54826
195
root 2.12481 16.3156 -17.5037 -171.571 8.70817 174.089
lowerback -0.0250961 -5.61622 -10.9625
upperback 2.18604 -7.23803 0.0163807
thorax 3.68507 -3.84367 5.78722
lowerneck -26.729 5.36193 8.52761
upperneck 41.2811 10.483 -5.23478
head 23.1363 5.45614 -1.16214
rclavicle -3.95085e-014 8.74653e-015
rhumerus -69.5442 -3.67227 -78.3842
rradius 89.252
rwrist 5.89861
rhand -8.41739 0.249292
rfingers 7.12502
rthumb 17.5072 -28.9824
lclavicle -3.95085e-014 8.74653e-015
lhumerus -40.3209 -37.9127 92.1479
lradius 92.9271
lwrist -20.3722
lhand -9.4295 1.91963
lfingers 7.12502
lthumb 16.533 31.2353
rfemur -45.8315 0.958825 14.2659
rtibia 43.0349
rfoot 2.49048 -10.9632
rtoes -21.722
lfemur 5.57791 -0.874095 -29.711
ltibia 28.1463
lfoot 23.3454 8.71646
ltoes -0.781966
196
root 2.17363 16.3233 -17.7893 -171.371 8.2937 173.819
lowerback -0.557288 -5.62824 -10.9962
upperback 1.94841 -7.20693 -0.0334555
thorax 3.7245 -3.82215 5.71572
lowerneck -26.7634 5.13685 8.35846
upperneck 41.4944 10.3039 -5.21999
head 23.2875 5.39218 -1.16568
rclavicle -5.66536e-015 -3.77691e-015
rhumerus -69.2639 -3.34536 -78.7377
rradius 89.4256
rwrist 5.97487
rhand -8.32781 0.351302
rfingers 7.12502
rthumb 17.5934 -28.8727
lclavicle -5.66536e-015 -3.77691e-015
lhumerus -41.9076 -38.1174 93.3971
lradius 92.7896
lwrist -20.5478
lhand -9.41459 1.55464
lfingers 7.12502
lthumb 16.5473 30.8691
rfemur -45.0537 0.857792 14.1771
rtibia 42.6351
rfoot 3.17643 -13.2122
rtoes -21.0543
lfemur 5.75947 -0.763086 -29.5366
ltibia 28.7069
lfoot 24.347 7.56184
ltoes -0.0888585
197
root 2.22181 16.3184 -18.0717 -171.161 7.82279 173.56
lowerback -1.04498 -5.63528 -11.0243
upperback 1.70457 -7.17347 -0.0719782
thorax 3.73279 -3.79727 5.65872
lowerneck -26.8123 4.9044 8.16791
upperneck 41.6811 10.1147 -5.21252
head 23.4207 5.31813 -1.17216
rclavicle -6.4605e-015 8.94531e-015
rhumerus -68.9182 -2.99052 -79.0621
rradius 89.5358
rwrist 6.06366
rhand -8.25008 0.454517
rfingers 7.12502
rthumb 17.6682 -28.7627
lclavicle -6.4605e-015 8.94531e-015
lhumerus -43.4899 -38.219 94.6312
lradius 92.6335
lwrist -20.734
lhand -9.42263 1.26039
lfingers 7.12502
lthumb 16.5396 30.5755
rfemur -44.273 0.839829 14.0402
rtibia 42.4399
rfoot 3.92572 -15.1557
rtoes -20.3463
lfemur 5.69966 -0.798902 -29.3439
ltibia 29.681
lfoot 25.2925 6.39715
ltoes 0.604938
